<svg height="1000" viewBox="0 0 1000 1000" width="1000" xmlns="http://www.w3.org/2000/svg" xmlns:xlink="http://www.w3.org/1999/xlink"><radialGradient id="a" cx="89.520466%" cy="48.947216%" gradientTransform="matrix(-1 0 0 -.356022 1.79041 .663735)" r="148.444461%"><stop offset="0" stop-color="#3e3e3e"/><stop offset="1" stop-color="#1d1d1d"/></radialGradient><linearGradient id="b" x1="0%" x2="44.94664%" y1="2.510856%" y2="62.563318%"><stop offset="0" stop-color="#5e5e5e"/><stop offset="1" stop-color="#111"/></linearGradient><radialGradient id="c" cx="15.666119%" cy="69.600592%" gradientTransform="matrix(.96132839 -.1012539 .27540465 .35343719 -.185625 .465874)" r="221.655102%"><stop offset="0" stop-color="#1a1a1a"/><stop offset="1" stop-color="#525252"/></radialGradient><linearGradient id="d" x1="50%" x2="50%" y1="100.13687%" y2="-4.421036%"><stop offset="0" stop-color="#505050"/><stop offset=".292567982" stop-color="#1d1d1d"/><stop offset=".965588873" stop-color="#545454"/></linearGradient><linearGradient id="e" x1="11.384873%" x2="30.900663%" y1="38.156444%" y2="100%"><stop offset="0" stop-color="#202020"/><stop offset="1" stop-color="#808080"/></linearGradient><g fill="none" fill-rule="evenodd"><g fill="#222" transform="translate(164 695)"><text font-family="Quicksand-Medium, Quicksand" font-size="180" font-weight="400"><tspan x="0" y="180">smooth</tspan></text><text font-family="Quicksand-Regular, Quicksand" font-size="60"><tspan x="641" y="180">.JS</tspan></text></g><g fill-rule="nonzero"><path d="m286.678376 549.159483-22.716589-47.727346c-.258127 1.621047 7.314069 2.431571 22.716589 2.431571 23.10378 0 47.861897-21.657587 67.690073-62.665859 21.636661-44.74855 34.22542-106.304195 34.22542-172.305972s-12.588759-127.557422-34.22542-172.305972c-19.828176-41.0082718-44.586293-62.6658591-67.690073-62.6658591-15.40252 0-32.853111 13.1605535-52.351774 39.4816604l52.351774-84.777435c85.785905 0 147.211268 127.0388187 147.211268 280.2676057s-61.425363 280.267606-147.211268 280.267606z" fill="url(#a)" transform="matrix(.70710678 -.70710678 .70710678 .70710678 106.722734 407.006727)"/><path d="m117.492927 163.108016c4.436302-9.907392 18.854933-15.964299 43.255894-18.17072-2.734858 20.864253-2.391945 50.957297-2.391945 73.042582 0 66.001777 12.588759 127.557422 34.225421 172.305972 19.828175 41.008271 44.586292 62.665859 67.690072 62.665859 0 0-62.955158 30.001859-123.175496-78.733099-15.36906-44.821151-24.035771-98.682326-24.035771-156.238732 0-24.045098-2.222627-40.010774 4.431825-54.871862z" fill="url(#b)" transform="matrix(.70710678 .70710678 -.70710678 .70710678 466.348214 48.247128)"/><path d="m315.366713 51.5351577c33.646879 2.1915592 52.688015 18.6668997 58.872315 24.4856355-55.585397-16.9938756-71.453829 22.3852231-77.795922 25.4901458-17.175114 8.408488-34.285529 28.036642-48.766466 57.985852-21.636662 44.74855-34.22542 106.304195-34.22542 172.305972 0 66.001778 12.588758 127.557422 34.22542 172.305972 19.828175 41.008272 36.521274 62.376916 57.243793 62.595639 16.269925 20.938258 38.986448 28.302389 68.14957 22.092393-16.031406 14.673378-35.265836 22.431246-57.70329 23.273602-85.785905 0-147.211268-127.038819-147.211268-280.267606s61.425363-280.2676053 147.211268-280.2676053z" fill="url(#c)" transform="matrix(.70710678 -.70710678 .70710678 .70710678 43.811848 380.948185)"/><path d="m227.221391 472.382734c19.828176 41.008271 44.586293 62.665859 67.690073 62.665859s47.861897-21.657588 67.690072-62.665859c21.636662-44.74855 34.225421-106.304195 34.225421-172.305972s-12.588759-127.557422-34.225421-172.305972c-19.828175-41.0082719-44.586292-62.6658592-67.690072-62.6658592-27.09116 0-55.908889 22.589309-76.417546 76.4175462-21.027958-6.696166-31.24395-16.912158-30.647976-30.647976.893962-20.6037276 56.818688-91.0653449 107.065522-91.0653449 85.785905 0 147.211267 127.0388189 147.211267 280.2676059s-61.425362 280.267605-147.211267 280.267605c-55.438576 0-100.703446-53.055291-125.791147-131.947679-2.833276-8.909699-5.427553-18.952509-5.427553-18.952509s33.736547 9.597542 50.261738 11.215704c2.067298 4.164897 7.569734 19.940098 13.266889 31.722851z" fill="url(#d)" transform="matrix(.70710678 .70710678 -.70710678 .70710678 499.905939 -34.297674)"/><path d="m454.617355 80.274742c-27.091159 0-55.908888 22.589309-76.417545 76.417546-21.027959-6.696165-31.243951-16.912157-30.647976-30.647976.893962-20.603727 52.064364-71.7741295 107.065521-45.76957z" fill="url(#e)" transform="matrix(.70710678 .70710678 -.70710678 .70710678 397.703496 -157.953469)"/></g></g></svg>