<svg height="171" viewBox="0 0 933 171" width="933" xmlns="http://www.w3.org/2000/svg" xmlns:xlink="http://www.w3.org/1999/xlink"><radialGradient id="a" cx="89.520466%" cy="48.947216%" gradientTransform="matrix(-1 0 0 -.356022 1.79041 .663735)" r="148.444461%"><stop offset="0" stop-color="#3e3e3e"/><stop offset="1" stop-color="#1d1d1d"/></radialGradient><linearGradient id="b" x1="0%" x2="44.94664%" y1="2.510856%" y2="62.563318%"><stop offset="0" stop-color="#5e5e5e"/><stop offset="1" stop-color="#111"/></linearGradient><radialGradient id="c" cx="15.666119%" cy="69.600592%" gradientTransform="matrix(.96132839 -.1012539 .27540465 .35343719 -.185625 .465874)" r="221.655102%"><stop offset="0" stop-color="#1a1a1a"/><stop offset="1" stop-color="#525252"/></radialGradient><linearGradient id="d" x1="50%" x2="50%" y1="100.13687%" y2="-4.421036%"><stop offset="0" stop-color="#505050"/><stop offset=".292567982" stop-color="#1d1d1d"/><stop offset=".965588873" stop-color="#545454"/></linearGradient><linearGradient id="e" x1="11.384873%" x2="30.900663%" y1="38.156444%" y2="100%"><stop offset="0" stop-color="#202020"/><stop offset="1" stop-color="#808080"/></linearGradient><g fill="none" fill-rule="evenodd"><g fill-rule="nonzero"><path d="m106.969543 204.910255-8.476339-17.808711c-.0963161.604868 2.72913.907302 8.476339.907302 8.620814 0 17.858917-8.081189 25.25749-23.382783 8.073381-16.69722 12.770679-39.665744 12.770679-64.293273 0-24.6275289-4.697298-47.5960531-12.770679-64.2932732-7.398573-15.301594-16.636676-23.3827833-25.25749-23.3827833-5.747209 0-12.2586233 4.9106543-19.5342436 14.7319629l19.5342436-31.6333713c32.009666 0 54.929578 47.4025442 54.929578 104.5774649 0 57.17492-22.919912 104.577465-54.929578 104.577465z" fill="url(#a)" transform="matrix(.70710678 -.70710678 .70710678 .70710678 -60.431816 91.539823)"/><path d="m43.8406445 60.8612c1.6553363-3.6967882 7.0354226-5.956828 16.1402589-6.7801196-1.0204694 7.7851693-.8925167 19.0139169-.8925167 27.2546948 0 24.6275288 4.6972981 47.5960528 12.7706792 64.2932728 7.3985729 15.301594 16.6366763 23.382784 25.2574898 23.382784 0 0-23.4907306 11.194723-45.9610062-29.378022-5.7347237-16.724311-8.9685713-36.821764-8.9685713-58.2980348 0-8.9720512-.8293382-14.9293929 1.6536663-20.4745752z" fill="url(#b)" transform="matrix(.70710678 .70710678 -.70710678 .70710678 73.756796 -42.325698)"/><path d="m117.674146 19.2295365c12.554806.8177459 19.659708 6.965261 21.967282 9.1364311-20.740819-6.3409983-26.661876 8.3526952-29.028329 9.5112485-6.408624 3.1374956-12.7931077 10.4614336-18.1964423 21.636512-8.0733811 16.6972201-12.7706792 39.6657443-12.7706792 64.2932729 0 24.627529 4.6972981 47.596053 12.7706792 64.293273 7.3985729 15.301594 13.6273413 23.274969 21.3596243 23.356582 6.070868 7.812783 14.547182 10.560593 25.428944 8.24343-5.981868 5.475141-13.158894 8.369868-21.531079 8.68418-32.0096655 0-54.929577-47.402544-54.929577-104.577465 0-57.1749203 22.9199115-104.5774645 54.929577-104.5774645z" fill="url(#c)" transform="matrix(.70710678 -.70710678 .70710678 .70710678 -83.906027 81.816487)"/><path d="m84.7841012 176.262214c7.3985729 15.301594 16.6366758 23.382783 25.2574898 23.382783 8.620813 0 17.858917-8.081189 25.25749-23.382783 8.073381-16.69722 12.770679-39.665744 12.770679-64.293273 0-24.6275289-4.697298-47.5960531-12.770679-64.2932732-7.398573-15.3015939-16.636677-23.3827832-25.25749-23.3827832-10.1086416 0-20.8615255 8.4288467-28.5140096 28.5140096-7.8462532-2.4985691-11.6581904-6.3105064-11.4358118-11.4358117.3335679-7.6879581 21.2010029-33.97960633 39.9498214-33.97960633 32.009666 0 54.929577 47.40254423 54.929577 104.57746483 0 57.174921-22.919911 104.577465-54.929577 104.577465-20.6860359 0-37.5759125-19.796751-46.9369952-49.234209-1.0571924-3.324514-2.0252063-7.071832-2.0252063-7.071832s12.588264 3.581173 18.7543798 4.184964c.7713799 1.554067 2.8245277 7.440335 4.9503319 11.836885z" fill="url(#d)" transform="matrix(.70710678 .70710678 -.70710678 .70710678 86.278335 -73.125998)"/><path d="m169.633342 29.953262c-10.108642 0-20.861526 8.4288466-28.51401 28.5140096-7.846253-2.4985692-11.65819-6.3105064-11.435812-11.4358118.333568-7.687958 19.427002-26.7813917 39.949822-17.0781978z" fill="url(#e)" transform="matrix(.70710678 .70710678 -.70710678 .70710678 48.143095 -119.26622)"/></g><g fill="#222" transform="translate(216 -31)"><text font-family="Quicksand-Medium, Quicksand" font-size="180" font-weight="400"><tspan x="0" y="180">smooth</tspan></text><text font-family="Quicksand-Regular, Quicksand" font-size="60"><tspan x="641" y="180">.JS</tspan></text></g></g></svg>